<svg xmlns="http://www.w3.org/2000/svg" xmlns:xlink="http://www.w3.org/1999/xlink" viewBox="0 0 124 124" fill="#fff" fill-rule="evenodd" stroke="#000" stroke-linecap="round" stroke-linejoin="round"><use xlink:href="#A" x=".5" y=".5"/><symbol id="A" overflow="visible"><path d="M8.708 61.26c0 20.802 12.089 38.779 29.619 47.298L13.258 39.872c-2.916 6.536-4.55 13.769-4.55 21.388zm88.032-2.652c0-6.495-2.333-10.993-4.334-14.494-2.664-4.329-5.161-7.995-5.161-12.324 0-4.831 3.664-9.328 8.825-9.328.233 0 .454.029.681.042-9.35-8.566-21.807-13.796-35.489-13.796-18.36 0-34.513 9.42-43.91 23.688l3.382.063c5.497 0 14.006-.667 14.006-.667 2.833-.167 3.167 3.994.337 4.329 0 0-2.847.335-6.015.501L48.2 93.547l11.501-34.493-8.188-22.434c-2.83-.166-5.511-.501-5.511-.501-2.832-.166-2.5-4.496.332-4.329 0 0 8.679.667 13.843.667 5.496 0 14.006-.667 14.006-.667 2.835-.167 3.168 3.994.337 4.329 0 0-2.853.335-6.015.501l18.992 56.494 5.242-17.517c2.272-7.269 4.001-12.49 4.001-16.989zm-34.556 7.249l-15.768 45.819a52.55 52.55 0 0 0 14.846 2.141 52.5 52.5 0 0 0 17.452-2.979c-.141-.225-.269-.464-.374-.724zm45.192-29.811c.226 1.674.354 3.471.354 5.404 0 5.333-.996 11.328-3.996 18.824l-16.053 46.413c15.624-9.111 26.133-26.038 26.133-45.426.001-9.137-2.333-17.729-6.438-25.215zM61.262 0C27.483 0 0 27.481 0 61.26s27.483 61.263 61.262 61.263 61.265-27.48 61.265-61.263S95.04 0 61.262 0zm0 119.715c-32.23 0-58.453-26.223-58.453-58.455S29.031 2.809 61.262 2.809s58.45 26.221 58.45 58.451-26.221 58.455-58.45 58.455z" fill-rule="nonzero" stroke="none" fill="#464342"/></symbol></svg>